# Falcon 9 (stilize, prosedürel olarak üretildi)
# Oluşturan: scripts/genFalcon9.mjs
o Falcon9
v 0.6200 0.0000 0.0000
v 0.6045 0.0000 0.1380
v 0.5586 0.0000 0.2690
v 0.4847 0.0000 0.3866
v 0.3866 0.0000 0.4847
v 0.2690 0.0000 0.5586
v 0.1380 0.0000 0.6045
v 0.0000 0.0000 0.6200
v -0.1380 0.0000 0.6045
v -0.2690 0.0000 0.5586
v -0.3866 0.0000 0.4847
v -0.4847 0.0000 0.3866
v -0.5586 0.0000 0.2690
v -0.6045 0.0000 0.1380
v -0.6200 0.0000 0.0000
v -0.6045 0.0000 -0.1380
v -0.5586 0.0000 -0.2690
v -0.4847 0.0000 -0.3866
v -0.3866 0.0000 -0.4847
v -0.2690 0.0000 -0.5586
v -0.1380 0.0000 -0.6045
v -0.0000 0.0000 -0.6200
v 0.1380 0.0000 -0.6045
v 0.2690 0.0000 -0.5586
v 0.3866 0.0000 -0.4847
v 0.4847 0.0000 -0.3866
v 0.5586 0.0000 -0.2690
v 0.6045 0.0000 -0.1380
v 0.6200 4.6000 0.0000
v 0.6045 4.6000 0.1380
v 0.5586 4.6000 0.2690
v 0.4847 4.6000 0.3866
v 0.3866 4.6000 0.4847
v 0.2690 4.6000 0.5586
v 0.1380 4.6000 0.6045
v 0.0000 4.6000 0.6200
v -0.1380 4.6000 0.6045
v -0.2690 4.6000 0.5586
v -0.3866 4.6000 0.4847
v -0.4847 4.6000 0.3866
v -0.5586 4.6000 0.2690
v -0.6045 4.6000 0.1380
v -0.6200 4.6000 0.0000
v -0.6045 4.6000 -0.1380
v -0.5586 4.6000 -0.2690
v -0.4847 4.6000 -0.3866
v -0.3866 4.6000 -0.4847
v -0.2690 4.6000 -0.5586
v -0.1380 4.6000 -0.6045
v -0.0000 4.6000 -0.6200
v 0.1380 4.6000 -0.6045
v 0.2690 4.6000 -0.5586
v 0.3866 4.6000 -0.4847
v 0.4847 4.6000 -0.3866
v 0.5586 4.6000 -0.2690
v 0.6045 4.6000 -0.1380
v 0.5500 4.9000 0.0000
v 0.5362 4.9000 0.1224
v 0.4955 4.9000 0.2386
v 0.4300 4.9000 0.3429
v 0.3429 4.9000 0.4300
v 0.2386 4.9000 0.4955
v 0.1224 4.9000 0.5362
v 0.0000 4.9000 0.5500
v -0.1224 4.9000 0.5362
v -0.2386 4.9000 0.4955
v -0.3429 4.9000 0.4300
v -0.4300 4.9000 0.3429
v -0.4955 4.9000 0.2386
v -0.5362 4.9000 0.1224
v -0.5500 4.9000 0.0000
v -0.5362 4.9000 -0.1224
v -0.4955 4.9000 -0.2386
v -0.4300 4.9000 -0.3429
v -0.3429 4.9000 -0.4300
v -0.2386 4.9000 -0.4955
v -0.1224 4.9000 -0.5362
v -0.0000 4.9000 -0.5500
v 0.1224 4.9000 -0.5362
v 0.2386 4.9000 -0.4955
v 0.3429 4.9000 -0.4300
v 0.4300 4.9000 -0.3429
v 0.4955 4.9000 -0.2386
v 0.5362 4.9000 -0.1224
v 0.5500 7.3000 0.0000
v 0.5362 7.3000 0.1224
v 0.4955 7.3000 0.2386
v 0.4300 7.3000 0.3429
v 0.3429 7.3000 0.4300
v 0.2386 7.3000 0.4955
v 0.1224 7.3000 0.5362
v 0.0000 7.3000 0.5500
v -0.1224 7.3000 0.5362
v -0.2386 7.3000 0.4955
v -0.3429 7.3000 0.4300
v -0.4300 7.3000 0.3429
v -0.4955 7.3000 0.2386
v -0.5362 7.3000 0.1224
v -0.5500 7.3000 0.0000
v -0.5362 7.3000 -0.1224
v -0.4955 7.3000 -0.2386
v -0.4300 7.3000 -0.3429
v -0.3429 7.3000 -0.4300
v -0.2386 7.3000 -0.4955
v -0.1224 7.3000 -0.5362
v -0.0000 7.3000 -0.5500
v 0.1224 7.3000 -0.5362
v 0.2386 7.3000 -0.4955
v 0.3429 7.3000 -0.4300
v 0.4300 7.3000 -0.3429
v 0.4955 7.3000 -0.2386
v 0.5362 7.3000 -0.1224
v 0.6200 7.6000 0.0000
v 0.6045 7.6000 0.1380
v 0.5586 7.6000 0.2690
v 0.4847 7.6000 0.3866
v 0.3866 7.6000 0.4847
v 0.2690 7.6000 0.5586
v 0.1380 7.6000 0.6045
v 0.0000 7.6000 0.6200
v -0.1380 7.6000 0.6045
v -0.2690 7.6000 0.5586
v -0.3866 7.6000 0.4847
v -0.4847 7.6000 0.3866
v -0.5586 7.6000 0.2690
v -0.6045 7.6000 0.1380
v -0.6200 7.6000 0.0000
v -0.6045 7.6000 -0.1380
v -0.5586 7.6000 -0.2690
v -0.4847 7.6000 -0.3866
v -0.3866 7.6000 -0.4847
v -0.2690 7.6000 -0.5586
v -0.1380 7.6000 -0.6045
v -0.0000 7.6000 -0.6200
v 0.1380 7.6000 -0.6045
v 0.2690 7.6000 -0.5586
v 0.3866 7.6000 -0.4847
v 0.4847 7.6000 -0.3866
v 0.5586 7.6000 -0.2690
v 0.6045 7.6000 -0.1380
v 0.6200 8.6000 0.0000
v 0.6045 8.6000 0.1380
v 0.5586 8.6000 0.2690
v 0.4847 8.6000 0.3866
v 0.3866 8.6000 0.4847
v 0.2690 8.6000 0.5586
v 0.1380 8.6000 0.6045
v 0.0000 8.6000 0.6200
v -0.1380 8.6000 0.6045
v -0.2690 8.6000 0.5586
v -0.3866 8.6000 0.4847
v -0.4847 8.6000 0.3866
v -0.5586 8.6000 0.2690
v -0.6045 8.6000 0.1380
v -0.6200 8.6000 0.0000
v -0.6045 8.6000 -0.1380
v -0.5586 8.6000 -0.2690
v -0.4847 8.6000 -0.3866
v -0.3866 8.6000 -0.4847
v -0.2690 8.6000 -0.5586
v -0.1380 8.6000 -0.6045
v -0.0000 8.6000 -0.6200
v 0.1380 8.6000 -0.6045
v 0.2690 8.6000 -0.5586
v 0.3866 8.6000 -0.4847
v 0.4847 8.6000 -0.3866
v 0.5586 8.6000 -0.2690
v 0.6045 8.6000 -0.1380
v 0.4000 9.4000 0.0000
v 0.3900 9.4000 0.0890
v 0.3604 9.4000 0.1736
v 0.3127 9.4000 0.2494
v 0.2494 9.4000 0.3127
v 0.1736 9.4000 0.3604
v 0.0890 9.4000 0.3900
v 0.0000 9.4000 0.4000
v -0.0890 9.4000 0.3900
v -0.1736 9.4000 0.3604
v -0.2494 9.4000 0.3127
v -0.3127 9.4000 0.2494
v -0.3604 9.4000 0.1736
v -0.3900 9.4000 0.0890
v -0.4000 9.4000 0.0000
v -0.3900 9.4000 -0.0890
v -0.3604 9.4000 -0.1736
v -0.3127 9.4000 -0.2494
v -0.2494 9.4000 -0.3127
v -0.1736 9.4000 -0.3604
v -0.0890 9.4000 -0.3900
v -0.0000 9.4000 -0.4000
v 0.0890 9.4000 -0.3900
v 0.1736 9.4000 -0.3604
v 0.2494 9.4000 -0.3127
v 0.3127 9.4000 -0.2494
v 0.3604 9.4000 -0.1736
v 0.3900 9.4000 -0.0890
v 0.0010 10.1000 0.0000
v 0.0010 10.1000 0.0002
v 0.0009 10.1000 0.0004
v 0.0008 10.1000 0.0006
v 0.0006 10.1000 0.0008
v 0.0004 10.1000 0.0009
v 0.0002 10.1000 0.0010
v 0.0000 10.1000 0.0010
v -0.0002 10.1000 0.0010
v -0.0004 10.1000 0.0009
v -0.0006 10.1000 0.0008
v -0.0008 10.1000 0.0006
v -0.0009 10.1000 0.0004
v -0.0010 10.1000 0.0002
v -0.0010 10.1000 0.0000
v -0.0010 10.1000 -0.0002
v -0.0009 10.1000 -0.0004
v -0.0008 10.1000 -0.0006
v -0.0006 10.1000 -0.0008
v -0.0004 10.1000 -0.0009
v -0.0002 10.1000 -0.0010
v -0.0000 10.1000 -0.0010
v 0.0002 10.1000 -0.0010
v 0.0004 10.1000 -0.0009
v 0.0006 10.1000 -0.0008
v 0.0008 10.1000 -0.0006
v 0.0009 10.1000 -0.0004
v 0.0010 10.1000 -0.0002
v 0.0000 0.0000 0.0000
v 0.5500 6.4500 -0.3200
v 0.6500 6.4500 -0.3200
v 0.6500 7.3500 -0.3200
v 0.5500 7.3500 -0.3200
v 0.5500 6.4500 0.3200
v 0.6500 6.4500 0.3200
v 0.6500 7.3500 0.3200
v 0.5500 7.3500 0.3200
v 0.3200 6.4500 0.5500
v 0.3200 6.4500 0.6500
v 0.3200 7.3500 0.6500
v 0.3200 7.3500 0.5500
v -0.3200 6.4500 0.5500
v -0.3200 6.4500 0.6500
v -0.3200 7.3500 0.6500
v -0.3200 7.3500 0.5500
v -0.5500 6.4500 0.3200
v -0.6500 6.4500 0.3200
v -0.6500 7.3500 0.3200
v -0.5500 7.3500 0.3200
v -0.5500 6.4500 -0.3200
v -0.6500 6.4500 -0.3200
v -0.6500 7.3500 -0.3200
v -0.5500 7.3500 -0.3200
v -0.3200 6.4500 -0.5500
v -0.3200 6.4500 -0.6500
v -0.3200 7.3500 -0.6500
v -0.3200 7.3500 -0.5500
v 0.3200 6.4500 -0.5500
v 0.3200 6.4500 -0.6500
v 0.3200 7.3500 -0.6500
v 0.3200 7.3500 -0.5500
v 0.6505 0.0000 0.4808
v 0.7212 0.0000 0.5515
v 0.7212 1.4000 0.5515
v 0.6505 1.4000 0.4808
v 0.4808 0.0000 0.6505
v 0.5515 0.0000 0.7212
v 0.5515 1.4000 0.7212
v 0.4808 1.4000 0.6505
v -0.4808 0.0000 0.6505
v -0.5515 0.0000 0.7212
v -0.5515 1.4000 0.7212
v -0.4808 1.4000 0.6505
v -0.6505 0.0000 0.4808
v -0.7212 0.0000 0.5515
v -0.7212 1.4000 0.5515
v -0.6505 1.4000 0.4808
v -0.6505 0.0000 -0.4808
v -0.7212 0.0000 -0.5515
v -0.7212 1.4000 -0.5515
v -0.6505 1.4000 -0.4808
v -0.4808 0.0000 -0.6505
v -0.5515 0.0000 -0.7212
v -0.5515 1.4000 -0.7212
v -0.4808 1.4000 -0.6505
v 0.4808 0.0000 -0.6505
v 0.5515 0.0000 -0.7212
v 0.5515 1.4000 -0.7212
v 0.4808 1.4000 -0.6505
v 0.6505 0.0000 -0.4808
v 0.7212 0.0000 -0.5515
v 0.7212 1.4000 -0.5515
v 0.6505 1.4000 -0.4808
v 0.4000 0.0000 0.0000
v 0.3847 0.0000 0.0470
v 0.3447 0.0000 0.0761
v 0.2953 0.0000 0.0761
v 0.2553 0.0000 0.0470
v 0.2400 0.0000 0.0000
v 0.2553 0.0000 -0.0470
v 0.2953 0.0000 -0.0761
v 0.3447 0.0000 -0.0761
v 0.3847 0.0000 -0.0470
v 0.4500 -0.3500 0.0000
v 0.4252 -0.3500 0.0764
v 0.3602 -0.3500 0.1236
v 0.2798 -0.3500 0.1236
v 0.2148 -0.3500 0.0764
v 0.1900 -0.3500 0.0000
v 0.2148 -0.3500 -0.0764
v 0.2798 -0.3500 -0.1236
v 0.3602 -0.3500 -0.1236
v 0.4252 -0.3500 -0.0764
v 0.3063 0.0000 0.2263
v 0.2910 0.0000 0.2733
v 0.2510 0.0000 0.3024
v 0.2016 0.0000 0.3024
v 0.1616 0.0000 0.2733
v 0.1463 0.0000 0.2263
v 0.1616 0.0000 0.1793
v 0.2016 0.0000 0.1502
v 0.2510 0.0000 0.1502
v 0.2910 0.0000 0.1793
v 0.3563 -0.3500 0.2263
v 0.3314 -0.3500 0.3027
v 0.2664 -0.3500 0.3499
v 0.1861 -0.3500 0.3499
v 0.1211 -0.3500 0.3027
v 0.0963 -0.3500 0.2263
v 0.1211 -0.3500 0.1499
v 0.1861 -0.3500 0.1026
v 0.2664 -0.3500 0.1026
v 0.3314 -0.3500 0.1499
v 0.0800 0.0000 0.3200
v 0.0647 0.0000 0.3670
v 0.0247 0.0000 0.3961
v -0.0247 0.0000 0.3961
v -0.0647 0.0000 0.3670
v -0.0800 0.0000 0.3200
v -0.0647 0.0000 0.2730
v -0.0247 0.0000 0.2439
v 0.0247 0.0000 0.2439
v 0.0647 0.0000 0.2730
v 0.1300 -0.3500 0.3200
v 0.1052 -0.3500 0.3964
v 0.0402 -0.3500 0.4436
v -0.0402 -0.3500 0.4436
v -0.1052 -0.3500 0.3964
v -0.1300 -0.3500 0.3200
v -0.1052 -0.3500 0.2436
v -0.0402 -0.3500 0.1964
v 0.0402 -0.3500 0.1964
v 0.1052 -0.3500 0.2436
v -0.1463 0.0000 0.2263
v -0.1616 0.0000 0.2733
v -0.2016 0.0000 0.3024
v -0.2510 0.0000 0.3024
v -0.2910 0.0000 0.2733
v -0.3063 0.0000 0.2263
v -0.2910 0.0000 0.1793
v -0.2510 0.0000 0.1502
v -0.2016 0.0000 0.1502
v -0.1616 0.0000 0.1793
v -0.0963 -0.3500 0.2263
v -0.1211 -0.3500 0.3027
v -0.1861 -0.3500 0.3499
v -0.2664 -0.3500 0.3499
v -0.3314 -0.3500 0.3027
v -0.3563 -0.3500 0.2263
v -0.3314 -0.3500 0.1499
v -0.2664 -0.3500 0.1026
v -0.1861 -0.3500 0.1026
v -0.1211 -0.3500 0.1499
v -0.2400 0.0000 0.0000
v -0.2553 0.0000 0.0470
v -0.2953 0.0000 0.0761
v -0.3447 0.0000 0.0761
v -0.3847 0.0000 0.0470
v -0.4000 0.0000 0.0000
v -0.3847 0.0000 -0.0470
v -0.3447 0.0000 -0.0761
v -0.2953 0.0000 -0.0761
v -0.2553 0.0000 -0.0470
v -0.1900 -0.3500 0.0000
v -0.2148 -0.3500 0.0764
v -0.2798 -0.3500 0.1236
v -0.3602 -0.3500 0.1236
v -0.4252 -0.3500 0.0764
v -0.4500 -0.3500 0.0000
v -0.4252 -0.3500 -0.0764
v -0.3602 -0.3500 -0.1236
v -0.2798 -0.3500 -0.1236
v -0.2148 -0.3500 -0.0764
v -0.1463 0.0000 -0.2263
v -0.1616 0.0000 -0.1793
v -0.2016 0.0000 -0.1502
v -0.2510 0.0000 -0.1502
v -0.2910 0.0000 -0.1793
v -0.3063 0.0000 -0.2263
v -0.2910 0.0000 -0.2733
v -0.2510 0.0000 -0.3024
v -0.2016 0.0000 -0.3024
v -0.1616 0.0000 -0.2733
v -0.0963 -0.3500 -0.2263
v -0.1211 -0.3500 -0.1499
v -0.1861 -0.3500 -0.1026
v -0.2664 -0.3500 -0.1026
v -0.3314 -0.3500 -0.1499
v -0.3563 -0.3500 -0.2263
v -0.3314 -0.3500 -0.3027
v -0.2664 -0.3500 -0.3499
v -0.1861 -0.3500 -0.3499
v -0.1211 -0.3500 -0.3027
v 0.0800 0.0000 -0.3200
v 0.0647 0.0000 -0.2730
v 0.0247 0.0000 -0.2439
v -0.0247 0.0000 -0.2439
v -0.0647 0.0000 -0.2730
v -0.0800 0.0000 -0.3200
v -0.0647 0.0000 -0.3670
v -0.0247 0.0000 -0.3961
v 0.0247 0.0000 -0.3961
v 0.0647 0.0000 -0.3670
v 0.1300 -0.3500 -0.3200
v 0.1052 -0.3500 -0.2436
v 0.0402 -0.3500 -0.1964
v -0.0402 -0.3500 -0.1964
v -0.1052 -0.3500 -0.2436
v -0.1300 -0.3500 -0.3200
v -0.1052 -0.3500 -0.3964
v -0.0402 -0.3500 -0.4436
v 0.0402 -0.3500 -0.4436
v 0.1052 -0.3500 -0.3964
v 0.3063 0.0000 -0.2263
v 0.2910 0.0000 -0.1793
v 0.2510 0.0000 -0.1502
v 0.2016 0.0000 -0.1502
v 0.1616 0.0000 -0.1793
v 0.1463 0.0000 -0.2263
v 0.1616 0.0000 -0.2733
v 0.2016 0.0000 -0.3024
v 0.2510 0.0000 -0.3024
v 0.2910 0.0000 -0.2733
v 0.3563 -0.3500 -0.2263
v 0.3314 -0.3500 -0.1499
v 0.2664 -0.3500 -0.1026
v 0.1861 -0.3500 -0.1026
v 0.1211 -0.3500 -0.1499
v 0.0963 -0.3500 -0.2263
v 0.1211 -0.3500 -0.3027
v 0.1861 -0.3500 -0.3499
v 0.2664 -0.3500 -0.3499
v 0.3314 -0.3500 -0.3027
v 0.0800 0.0000 0.0000
v 0.0647 0.0000 0.0470
v 0.0247 0.0000 0.0761
v -0.0247 0.0000 0.0761
v -0.0647 0.0000 0.0470
v -0.0800 0.0000 0.0000
v -0.0647 0.0000 -0.0470
v -0.0247 0.0000 -0.0761
v 0.0247 0.0000 -0.0761
v 0.0647 0.0000 -0.0470
v 0.1300 -0.3500 0.0000
v 0.1052 -0.3500 0.0764
v 0.0402 -0.3500 0.1236
v -0.0402 -0.3500 0.1236
v -0.1052 -0.3500 0.0764
v -0.1300 -0.3500 0.0000
v -0.1052 -0.3500 -0.0764
v -0.0402 -0.3500 -0.1236
v 0.0402 -0.3500 -0.1236
v 0.1052 -0.3500 -0.0764
f 1 2 30 29
f 2 3 31 30
f 3 4 32 31
f 4 5 33 32
f 5 6 34 33
f 6 7 35 34
f 7 8 36 35
f 8 9 37 36
f 9 10 38 37
f 10 11 39 38
f 11 12 40 39
f 12 13 41 40
f 13 14 42 41
f 14 15 43 42
f 15 16 44 43
f 16 17 45 44
f 17 18 46 45
f 18 19 47 46
f 19 20 48 47
f 20 21 49 48
f 21 22 50 49
f 22 23 51 50
f 23 24 52 51
f 24 25 53 52
f 25 26 54 53
f 26 27 55 54
f 27 28 56 55
f 28 1 29 56
f 29 30 58 57
f 30 31 59 58
f 31 32 60 59
f 32 33 61 60
f 33 34 62 61
f 34 35 63 62
f 35 36 64 63
f 36 37 65 64
f 37 38 66 65
f 38 39 67 66
f 39 40 68 67
f 40 41 69 68
f 41 42 70 69
f 42 43 71 70
f 43 44 72 71
f 44 45 73 72
f 45 46 74 73
f 46 47 75 74
f 47 48 76 75
f 48 49 77 76
f 49 50 78 77
f 50 51 79 78
f 51 52 80 79
f 52 53 81 80
f 53 54 82 81
f 54 55 83 82
f 55 56 84 83
f 56 29 57 84
f 57 58 86 85
f 58 59 87 86
f 59 60 88 87
f 60 61 89 88
f 61 62 90 89
f 62 63 91 90
f 63 64 92 91
f 64 65 93 92
f 65 66 94 93
f 66 67 95 94
f 67 68 96 95
f 68 69 97 96
f 69 70 98 97
f 70 71 99 98
f 71 72 100 99
f 72 73 101 100
f 73 74 102 101
f 74 75 103 102
f 75 76 104 103
f 76 77 105 104
f 77 78 106 105
f 78 79 107 106
f 79 80 108 107
f 80 81 109 108
f 81 82 110 109
f 82 83 111 110
f 83 84 112 111
f 84 57 85 112
f 85 86 114 113
f 86 87 115 114
f 87 88 116 115
f 88 89 117 116
f 89 90 118 117
f 90 91 119 118
f 91 92 120 119
f 92 93 121 120
f 93 94 122 121
f 94 95 123 122
f 95 96 124 123
f 96 97 125 124
f 97 98 126 125
f 98 99 127 126
f 99 100 128 127
f 100 101 129 128
f 101 102 130 129
f 102 103 131 130
f 103 104 132 131
f 104 105 133 132
f 105 106 134 133
f 106 107 135 134
f 107 108 136 135
f 108 109 137 136
f 109 110 138 137
f 110 111 139 138
f 111 112 140 139
f 112 85 113 140
f 113 114 142 141
f 114 115 143 142
f 115 116 144 143
f 116 117 145 144
f 117 118 146 145
f 118 119 147 146
f 119 120 148 147
f 120 121 149 148
f 121 122 150 149
f 122 123 151 150
f 123 124 152 151
f 124 125 153 152
f 125 126 154 153
f 126 127 155 154
f 127 128 156 155
f 128 129 157 156
f 129 130 158 157
f 130 131 159 158
f 131 132 160 159
f 132 133 161 160
f 133 134 162 161
f 134 135 163 162
f 135 136 164 163
f 136 137 165 164
f 137 138 166 165
f 138 139 167 166
f 139 140 168 167
f 140 113 141 168
f 141 142 170 169
f 142 143 171 170
f 143 144 172 171
f 144 145 173 172
f 145 146 174 173
f 146 147 175 174
f 147 148 176 175
f 148 149 177 176
f 149 150 178 177
f 150 151 179 178
f 151 152 180 179
f 152 153 181 180
f 153 154 182 181
f 154 155 183 182
f 155 156 184 183
f 156 157 185 184
f 157 158 186 185
f 158 159 187 186
f 159 160 188 187
f 160 161 189 188
f 161 162 190 189
f 162 163 191 190
f 163 164 192 191
f 164 165 193 192
f 165 166 194 193
f 166 167 195 194
f 167 168 196 195
f 168 141 169 196
f 169 170 198 197
f 170 171 199 198
f 171 172 200 199
f 172 173 201 200
f 173 174 202 201
f 174 175 203 202
f 175 176 204 203
f 176 177 205 204
f 177 178 206 205
f 178 179 207 206
f 179 180 208 207
f 180 181 209 208
f 181 182 210 209
f 182 183 211 210
f 183 184 212 211
f 184 185 213 212
f 185 186 214 213
f 186 187 215 214
f 187 188 216 215
f 188 189 217 216
f 189 190 218 217
f 190 191 219 218
f 191 192 220 219
f 192 193 221 220
f 193 194 222 221
f 194 195 223 222
f 195 196 224 223
f 196 169 197 224
f 225 2 1
f 225 3 2
f 225 4 3
f 225 5 4
f 225 6 5
f 225 7 6
f 225 8 7
f 225 9 8
f 225 10 9
f 225 11 10
f 225 12 11
f 225 13 12
f 225 14 13
f 225 15 14
f 225 16 15
f 225 17 16
f 225 18 17
f 225 19 18
f 225 20 19
f 225 21 20
f 225 22 21
f 225 23 22
f 225 24 23
f 225 25 24
f 225 26 25
f 225 27 26
f 225 28 27
f 225 1 28
f 226 227 228 229
f 231 230 233 232
f 230 226 229 233
f 227 231 232 228
f 229 228 232 233
f 230 231 227 226
f 234 235 236 237
f 239 238 241 240
f 238 234 237 241
f 235 239 240 236
f 237 236 240 241
f 238 239 235 234
f 242 243 244 245
f 247 246 249 248
f 246 242 245 249
f 243 247 248 244
f 245 244 248 249
f 246 247 243 242
f 250 251 252 253
f 255 254 257 256
f 254 250 253 257
f 251 255 256 252
f 253 252 256 257
f 254 255 251 250
f 258 259 260 261
f 263 262 265 264
f 262 258 261 265
f 259 263 264 260
f 261 260 264 265
f 262 263 259 258
f 266 267 268 269
f 271 270 273 272
f 270 266 269 273
f 267 271 272 268
f 269 268 272 273
f 270 271 267 266
f 274 275 276 277
f 279 278 281 280
f 278 274 277 281
f 275 279 280 276
f 277 276 280 281
f 278 279 275 274
f 282 283 284 285
f 287 286 289 288
f 286 282 285 289
f 283 287 288 284
f 285 284 288 289
f 286 287 283 282
f 290 291 301 300
f 291 292 302 301
f 292 293 303 302
f 293 294 304 303
f 294 295 305 304
f 295 296 306 305
f 296 297 307 306
f 297 298 308 307
f 298 299 309 308
f 299 290 300 309
f 310 311 321 320
f 311 312 322 321
f 312 313 323 322
f 313 314 324 323
f 314 315 325 324
f 315 316 326 325
f 316 317 327 326
f 317 318 328 327
f 318 319 329 328
f 319 310 320 329
f 330 331 341 340
f 331 332 342 341
f 332 333 343 342
f 333 334 344 343
f 334 335 345 344
f 335 336 346 345
f 336 337 347 346
f 337 338 348 347
f 338 339 349 348
f 339 330 340 349
f 350 351 361 360
f 351 352 362 361
f 352 353 363 362
f 353 354 364 363
f 354 355 365 364
f 355 356 366 365
f 356 357 367 366
f 357 358 368 367
f 358 359 369 368
f 359 350 360 369
f 370 371 381 380
f 371 372 382 381
f 372 373 383 382
f 373 374 384 383
f 374 375 385 384
f 375 376 386 385
f 376 377 387 386
f 377 378 388 387
f 378 379 389 388
f 379 370 380 389
f 390 391 401 400
f 391 392 402 401
f 392 393 403 402
f 393 394 404 403
f 394 395 405 404
f 395 396 406 405
f 396 397 407 406
f 397 398 408 407
f 398 399 409 408
f 399 390 400 409
f 410 411 421 420
f 411 412 422 421
f 412 413 423 422
f 413 414 424 423
f 414 415 425 424
f 415 416 426 425
f 416 417 427 426
f 417 418 428 427
f 418 419 429 428
f 419 410 420 429
f 430 431 441 440
f 431 432 442 441
f 432 433 443 442
f 433 434 444 443
f 434 435 445 444
f 435 436 446 445
f 436 437 447 446
f 437 438 448 447
f 438 439 449 448
f 439 430 440 449
f 450 451 461 460
f 451 452 462 461
f 452 453 463 462
f 453 454 464 463
f 454 455 465 464
f 455 456 466 465
f 456 457 467 466
f 457 458 468 467
f 458 459 469 468
f 459 450 460 469
